<?xml version="1.0" encoding="iso-8859-1"?>
<!-- Generator: Adobe Illustrator 19.0.0, SVG Export Plug-In . SVG Version: 6.00 Build 0)  -->
<svg version="1.1" id="Layer_1" xmlns="http://www.w3.org/2000/svg" xmlns:xlink="http://www.w3.org/1999/xlink" x="0px" y="0px"
	 viewBox="0 0 512 512" style="enable-background:new 0 0 512 512;" xml:space="preserve">
<circle style="fill:#FFC61B;" cx="256" cy="256" r="256"/>
<path style="fill:#EAA22F;" d="M273.144,511.416c122.906-8.13,222.096-102.984,236.927-223.94L376.456,153.717l-17.896,39.365
	l-43.373-43.446l-6.339,15.66l41.832,42.048l-46.411,102.097l3,3l-180.455,52.643L273.144,511.416z"/>
<g>
	<path style="fill:#59595B;" d="M369.547,190.492H349.32c-5.363,0-9.712-4.348-9.712-9.712v-20.225c0-5.363,4.348-9.712,9.712-9.712
		h20.227c5.363,0,9.712,4.348,9.712,9.712v20.227C379.259,186.144,374.912,190.492,369.547,190.492z"/>
	<path style="fill:#59595B;" d="M371.79,170.667h-44.678l-7.352-14.705c-4.21-8.421-12.817-13.74-22.231-13.74h-26.165
		c-9.414,0-18.022,5.32-22.231,13.74l-7.352,14.705h-44.678c-14.598,0-26.433,11.835-26.433,26.433v146.246
		c0,14.598,11.835,26.433,26.433,26.433h174.69c14.598,0,26.433-11.835,26.433-26.433V197.099
		C398.222,182.501,386.388,170.667,371.79,170.667z"/>
</g>
<path style="fill:#272525;" d="M371.79,170.667h-44.678l-7.352-14.705c-1.67-3.341-4.039-6.182-6.87-8.407v222.224h58.901
	c14.598,0,26.433-11.835,26.433-26.433V197.099C398.222,182.501,386.388,170.667,371.79,170.667z"/>
<path style="fill:#A6A8AA;" d="M123.69,170.667v185.894c0,7.299,5.918,13.217,13.217,13.217h58.899
	c7.299,0,13.217-5.918,13.217-13.217V170.667H123.69z"/>
<path style="fill:#808183;" d="M165.209,170.667v199.111h30.599c7.299,0,13.217-5.918,13.217-13.217V170.667H165.209z"/>
<ellipse style="fill:#59595B;" cx="166.357" cy="171.529" rx="42.667" ry="14.222"/>
<path style="fill:#272525;" d="M166.357,157.306c-0.384,0-0.765,0.007-1.148,0.01v28.425c0.383,0.003,0.764,0.01,1.148,0.01
	c23.564,0,42.667-6.368,42.667-14.222C209.024,163.676,189.921,157.306,166.357,157.306z"/>
<circle style="fill:#A6A8AA;" cx="312.889" cy="269.791" r="73.266"/>
<path style="fill:#808183;" d="M386.155,269.791c0-40.464-32.802-73.266-73.266-73.266v146.532
	C353.352,343.057,386.155,310.255,386.155,269.791z"/>
<circle style="fill:#59595B;" cx="312.889" cy="269.791" r="56.889"/>
<path style="fill:#272525;" d="M369.778,269.791c0-31.418-25.471-56.889-56.889-56.889V326.68
	C344.307,326.68,369.778,301.209,369.778,269.791z"/>
<circle style="fill:#71E2EF;" cx="312.889" cy="269.791" r="46.223"/>
<path style="fill:#38C6D9;" d="M359.11,269.791c0-25.528-20.694-46.221-46.221-46.223v92.444
	C338.416,316.013,359.11,295.319,359.11,269.791z"/>
<g>
</g>
<g>
</g>
<g>
</g>
<g>
</g>
<g>
</g>
<g>
</g>
<g>
</g>
<g>
</g>
<g>
</g>
<g>
</g>
<g>
</g>
<g>
</g>
<g>
</g>
<g>
</g>
<g>
</g>
</svg>
