<?xml version="1.0" encoding="iso-8859-1"?>
<!-- Generator: Adobe Illustrator 19.0.0, SVG Export Plug-In . SVG Version: 6.00 Build 0)  -->
<svg version="1.1" id="Layer_1" xmlns="http://www.w3.org/2000/svg" xmlns:xlink="http://www.w3.org/1999/xlink" x="0px" y="0px"
	 viewBox="0 0 512 512" style="enable-background:new 0 0 512 512;" xml:space="preserve">
<circle style="fill:#34495E;" cx="256" cy="256" r="256"/>
<path style="fill:#203549;" d="M346.371,169.869c-0.33-0.366-0.66-0.73-1.024-1.06l-2.12-2.122c-0.366-0.366-0.73-0.73-1.096-1.06
	c-22.382-21.427-52.739-34.56-86.126-34.56c-68.905,0-124.966,56.031-124.966,124.928c0,33.385,13.13,63.739,34.557,86.124
	c0.261,0.294,0.512,0.548,0.773,0.806l2.668,2.67c0.253,0.261,0.512,0.504,0.801,0.765l155.937,155.942
	c85.266-24.118,152.41-91.259,176.52-176.52L346.371,169.869z"/>
<g>
	<path style="fill:#E1EFFA;" d="M256,358.216c-56.364,0-102.239-45.847-102.239-102.221c0-56.361,45.875-102.223,102.239-102.223
		c56.366,0,102.221,45.862,102.221,102.223h22.705c0-68.897-56.046-124.943-124.925-124.943
		c-68.905,0-124.948,56.046-124.948,124.943c0,68.879,56.046,124.925,124.948,124.925V358.216z"/>
	<path style="fill:#E1EFFA;" d="M256,238.971c-9.4,0-17.034,7.626-17.034,17.024c0,9.403,7.634,17.042,17.034,17.042v-17.042h17.034
		C273.034,246.597,265.388,238.971,256,238.971z"/>
	<path style="fill:#E1EFFA;" d="M256,187.84c-37.591,0-68.163,30.564-68.163,68.155c0,37.573,30.572,68.15,68.163,68.15v-22.728
		c-25.055,0-45.437-20.372-45.437-45.422c0-25.044,20.38-45.44,45.437-45.44s45.414,20.396,45.414,45.44h22.733
		C324.147,218.406,293.571,187.84,256,187.84z"/>
</g>
<polygon style="fill:#F28124;" points="324.567,412.644 354.202,354.196 256,255.995 "/>
<polygon style="fill:#FF9D4D;" points="412.652,324.567 354.202,354.196 256,255.995 "/>
<g>
</g>
<g>
</g>
<g>
</g>
<g>
</g>
<g>
</g>
<g>
</g>
<g>
</g>
<g>
</g>
<g>
</g>
<g>
</g>
<g>
</g>
<g>
</g>
<g>
</g>
<g>
</g>
<g>
</g>
</svg>
