<?xml version="1.0" encoding="iso-8859-1"?>
<!-- Generator: Adobe Illustrator 19.0.0, SVG Export Plug-In . SVG Version: 6.00 Build 0)  -->
<svg version="1.1" id="Layer_1" xmlns="http://www.w3.org/2000/svg" xmlns:xlink="http://www.w3.org/1999/xlink" x="0px" y="0px"
	 viewBox="0 0 512 512" style="enable-background:new 0 0 512 512;" xml:space="preserve">
<circle style="fill:#FFAD9E;" cx="256" cy="256" r="256"/>
<path style="fill:#FF6262;" d="M269.846,511.624c130.77-6.971,235.487-112.075,241.842-243.007L410.003,166.933l-12.659,11.907
	l-41.789-36.618l-153.14,171.672l-3.448,15.157l-42.524,69.172L269.846,511.624z"/>
<g>
	<path style="fill:#121149;" d="M174.976,413.306L174.976,413.306c-4.284,0-7.758-3.474-7.758-7.758V392.62
		c0-4.284,3.474-7.758,7.758-7.758l0,0c4.284,0,7.758,3.474,7.758,7.758v12.929C182.734,409.833,179.26,413.306,174.976,413.306z"/>
	<path style="fill:#121149;" d="M337.024,413.306L337.024,413.306c-4.284,0-7.758-3.474-7.758-7.758V392.62
		c0-4.284,3.474-7.758,7.758-7.758l0,0c4.284,0,7.758,3.474,7.758,7.758v12.929C344.781,409.833,341.307,413.306,337.024,413.306z"
		/>
	<polygon style="fill:#121149;" points="170.667,284.444 113.778,200.835 113.778,157.737 170.667,199.111 	"/>
</g>
<g>
	<path style="fill:#386895;" d="M349.953,232.727c-1.324,0-2.646-0.505-3.656-1.515c-2.02-2.019-2.02-5.294,0-7.313l56.889-56.889
		c2.02-2.02,5.292-2.02,7.313,0c2.02,2.019,2.02,5.294,0,7.313l-56.889,56.889C352.599,232.222,351.277,232.727,349.953,232.727z"/>
	<path style="fill:#386895;" d="M349.953,289.616c-1.324,0-2.646-0.505-3.656-1.515c-2.02-2.019-2.02-5.294,0-7.313l56.889-56.889
		c2.02-2.02,5.292-2.02,7.313,0c2.02,2.019,2.02,5.294,0,7.313l-56.889,56.889C352.599,289.111,351.277,289.616,349.953,289.616z"/>
</g>
<rect x="156.444" y="142.222" style="fill:#273B7A;" width="199.111" height="256"/>
<rect x="255.431" y="142.222" style="fill:#121149;" width="100.124" height="256"/>
<rect x="227.556" y="227.556" style="fill:#386895;" width="113.778" height="170.667"/>
<rect x="280.704" y="227.556" style="fill:#273B7A;" width="60.63" height="170.667"/>
<rect x="156.444" y="142.222" style="fill:#121149;" width="199.111" height="28.444"/>
<rect x="255.431" y="142.222" style="fill:#0A0A35;" width="100.124" height="28.444"/>
<g>
	<rect x="227.556" y="246.656" style="fill:#38C6D9;" width="113.778" height="28.444"/>
	<rect x="227.556" y="298.667" style="fill:#38C6D9;" width="113.778" height="28.444"/>
	<rect x="227.556" y="350.677" style="fill:#38C6D9;" width="113.778" height="28.444"/>
</g>
<g>
	<rect x="280.704" y="246.656" style="fill:#02B2B2;" width="60.63" height="28.444"/>
	<rect x="280.704" y="298.667" style="fill:#02B2B2;" width="60.63" height="28.444"/>
	<rect x="280.704" y="350.677" style="fill:#02B2B2;" width="60.63" height="28.444"/>
</g>
<g>
</g>
<g>
</g>
<g>
</g>
<g>
</g>
<g>
</g>
<g>
</g>
<g>
</g>
<g>
</g>
<g>
</g>
<g>
</g>
<g>
</g>
<g>
</g>
<g>
</g>
<g>
</g>
<g>
</g>
</svg>
