<?xml version="1.0" encoding="iso-8859-1"?>
<!-- Generator: Adobe Illustrator 19.0.0, SVG Export Plug-In . SVG Version: 6.00 Build 0)  -->
<svg version="1.1" id="Layer_1" xmlns="http://www.w3.org/2000/svg" xmlns:xlink="http://www.w3.org/1999/xlink" x="0px" y="0px"
	 viewBox="0 0 512 512" style="enable-background:new 0 0 512 512;" xml:space="preserve">
<circle style="fill:#FF7F4F;" cx="256" cy="256" r="256"/>
<path style="fill:#D35933;" d="M282.51,510.64c117.238-12.062,210.999-103.243,227.044-219.253L360.472,142.098l-73.438,172.751
	l4.717,4.717l-148.642,51.888L282.51,510.64z"/>
<path style="fill:#D1D1D1;" d="M345.716,252.125H164.164c-10.507,0-19.025-8.518-19.025-19.025v-78.993
	c0-10.507,8.518-19.025,19.025-19.025h181.55c10.507,0,19.025,8.518,19.025,19.025v78.991
	C364.741,243.607,356.223,252.125,345.716,252.125z"/>
<g>
	<circle style="fill:#FFFFFF;" cx="203.542" cy="151.911" r="9.004"/>
	<circle style="fill:#FFFFFF;" cx="307.665" cy="151.911" r="9.004"/>
</g>
<path style="fill:#4183F2;" d="M374.013,357.105l-7.647-85.663l7.568-81.329c0.993-10.669-7.402-19.88-18.117-19.88H156.184
	c-10.714,0-19.109,9.213-18.117,19.88l7.568,81.329l-7.649,85.663c-0.95,10.645,7.435,19.813,18.123,19.813h199.782
	C366.578,376.918,374.965,367.75,374.013,357.105z"/>
<path style="fill:#2E5ECC;" d="M355.816,170.234H156.184c-10.714,0-19.109,9.213-18.117,19.88l7.568,81.329h220.732l7.568-81.329
	C374.925,179.447,366.532,170.234,355.816,170.234z"/>
<path style="fill:#4183F2;" d="M145.634,271.443l-7.649,85.663c-0.95,10.645,7.435,19.813,18.123,19.813H355.89
	c10.688,0,19.073-9.168,18.123-19.813l-7.649-85.663L145.634,271.443L145.634,271.443z"/>
<g>
	<polygon style="fill:#FFFFFF;" points="270.876,246.448 296.319,237.054 296.319,325.129 309.824,325.129 309.824,220.525 
		270.876,234.705 	"/>
	<path style="fill:#FFFFFF;" d="M202.762,249.189h-11.498c0,0-1.321-27.891,32.049-27.891c7.878,0,27.695,1.076,28.575,25.738
		c0.272,7.639-0.881,17.322-15.267,24.759c0,0,16.636,3.229,16.636,26.031c0,22.802-21.775,28.038-33.861,27.303
		c-12.016-0.729-28.575-8.514-28.575-27.891h10.276c0,0,1.393,18.661,20.747,17.713c16.979-0.833,19.084-14.679,19.084-18.006
		c0-3.327,0-19.18-20.649-20.061h-9.787v-9.199h9.492c0,0,20.306-3.181,19.573-18.887c-0.679-14.543-12.526-17.517-18.251-17.517
		C215.583,231.279,202.762,234.313,202.762,249.189z"/>
</g>
<g>
	<polygon style="fill:#C0C3D7;" points="309.824,220.525 270.876,234.705 270.876,246.448 296.319,237.054 296.319,272.087 
		309.824,272.087 	"/>
	<path style="fill:#C0C3D7;" d="M236.623,271.794c14.386-7.437,15.539-17.12,15.267-24.759
		c-0.881-24.66-20.697-25.738-28.575-25.738c-33.371,0-32.049,27.891-32.049,27.891h11.498c0-14.876,12.821-17.908,18.544-17.908
		c5.725,0,17.572,2.974,18.251,17.517c0.734,15.706-19.573,18.887-19.573,18.887h-9.492v4.405h27.203
		C237.023,271.872,236.623,271.794,236.623,271.794z"/>
</g>
<g>
</g>
<g>
</g>
<g>
</g>
<g>
</g>
<g>
</g>
<g>
</g>
<g>
</g>
<g>
</g>
<g>
</g>
<g>
</g>
<g>
</g>
<g>
</g>
<g>
</g>
<g>
</g>
<g>
</g>
</svg>
