<?xml version="1.0" encoding="iso-8859-1"?>
<!-- Generator: Adobe Illustrator 19.0.0, SVG Export Plug-In . SVG Version: 6.00 Build 0)  -->
<svg version="1.1" id="Layer_1" xmlns="http://www.w3.org/2000/svg" xmlns:xlink="http://www.w3.org/1999/xlink" x="0px" y="0px"
	 viewBox="0 0 512 512" style="enable-background:new 0 0 512 512;" xml:space="preserve">
<g>
	<circle style="fill:#14B0BF;" cx="256" cy="256" r="256"/>
	<path style="fill:#3387B5;" d="M437.018,437.018c51.666-51.666,76.559-119.926,74.824-187.622
		c-0.824-1.055-129.172-129.459-130.324-130.324c-2.749-3.666-7.091-6.077-12.027-6.077c-8.32,0-15.068,6.743-15.068,15.063
		c0,4.915,2.458,9.139,6.103,11.884l0.86,1.096H256h-79.35l-0.865-0.712c-0.865-1.152-20.096-20.388-21.253-21.253
		c-2.749-3.671-7.091-6.077-12.027-6.077c-8.32,0-15.063,6.743-15.063,15.063c0,4.915,2.458,9.139,6.103,11.884
		c0.461,0.62,0.881,1.27,1.434,1.807v115.031c-4.485,2.611-7.532,7.414-7.532,12.974c0,4.936,2.406,9.277,6.077,12.027
		c0.865,1.152,82.324,82.401,82.504,82.616l-51.354,37.878l-0.532-0.051c-9.119,0-16.517,7.393-16.517,16.517l0.061,0.609
		l94.182,92.221C312.008,515.43,383.437,490.604,437.018,437.018z"/>
	<rect x="150.016" y="141.036" style="fill:#FDC00F;" width="211.917" height="115.748"/>
	<rect x="256" y="141.036" style="fill:#F29A00;" width="105.958" height="115.748"/>
	<path style="fill:#2C5871;" d="M377.027,256.783V141.036c4.485-2.611,7.532-7.414,7.532-12.974c0-8.32-6.743-15.063-15.063-15.063
		s-15.068,6.743-15.068,15.063c0,5.56,3.046,10.368,7.532,12.974v115.748c-4.485,2.611-7.532,7.414-7.532,12.974l0.005,0.061
		H157.568l0.005-0.061c0-5.56-3.046-10.368-7.532-12.974V141.036c4.485-2.611,7.532-7.414,7.532-12.974
		c0-8.32-6.743-15.063-15.068-15.063c-8.32,0-15.063,6.743-15.063,15.063c0,5.56,3.046,10.368,7.532,12.974v115.748
		c-4.485,2.611-7.532,7.414-7.532,12.974c0,8.32,6.743,15.063,15.063,15.063l0,0h20.301l80.548,59.412l-78.684,58.051l-0.532-0.051
		c-9.119,0-16.517,7.393-16.517,16.517l0.061,0.609h32.906l0.061-0.609c0-2.923-0.824-5.632-2.161-8.013L256,353.562l77.507,57.17
		c-1.336,2.381-2.161,5.089-2.161,8.013l0.061,0.609h32.906l0.061-0.609c0-9.119-7.393-16.517-16.517-16.517l-0.532,0.051
		l-78.694-58.045l80.558-59.407h20.301c8.32,0,15.063-6.743,15.063-15.063C384.558,264.197,381.507,259.395,377.027,256.783z
		 M256,334.915l-67.912-50.089h135.818L256,334.915z"/>
	<path style="fill:#0F303F;" d="M377.027,256.783V141.036c4.485-2.611,7.532-7.414,7.532-12.974c0-8.32-6.743-15.063-15.063-15.063
		s-15.068,6.743-15.068,15.063c0,5.56,3.046,10.368,7.532,12.974v115.748c-4.485,2.611-7.532,7.414-7.532,12.974l0.005,0.061H256
		v15.007h67.912L256,334.915v18.647l77.507,57.17c-1.336,2.381-2.161,5.089-2.161,8.013l0.061,0.609h32.906l0.061-0.609
		c0-9.119-7.393-16.517-16.517-16.517l-0.532,0.051l-78.694-58.045l80.558-59.407h20.301c8.32,0,15.063-6.743,15.063-15.063
		C384.558,264.197,381.507,259.395,377.027,256.783z"/>
	<path style="fill:#FFFFFF;" d="M189.384,210.55c0,2.596-0.911,4.813-2.729,6.656c-1.823,1.843-4.019,2.765-6.595,2.765h-9.324
		v-39.378h9.324c2.596,0,4.797,0.922,6.61,2.765s2.719,4.05,2.719,6.625v20.567H189.384z M176.671,214.098h3.579
		c0.937,0,1.736-0.338,2.386-1.024c0.645-0.681,0.973-1.48,0.973-2.401v-20.598c0-0.942-0.328-1.751-0.988-2.417
		c-0.66-0.671-1.449-1.009-2.371-1.009h-3.579L176.671,214.098L176.671,214.098z"/>
	<rect x="194.611" y="180.634" style="fill:#FFFFFF;" width="5.934" height="39.342"/>
	<path style="fill:#FFFFFF;" d="M215.199,180.628c3.308,0,5.734,0.911,7.286,2.729c1.362,1.592,2.038,3.809,2.038,6.656v5.719
		c0,2.78-1.06,5.135-3.169,7.06l4.393,17.178h-6.42l-3.599-14.822h-0.532h-3.42v14.822h-5.939v-39.342H215.199z M218.747,190.106
		c0-2.284-1.132-3.42-3.389-3.42h-3.579v12.595h3.579c0.937,0,1.741-0.333,2.401-1.009c0.66-0.671,0.988-1.475,0.988-2.417
		L218.747,190.106L218.747,190.106z"/>
	<polygon style="fill:#FFFFFF;" points="230.83,219.971 230.83,180.593 247.726,180.593 247.726,186.563 236.769,186.563 
		236.769,197.299 244.772,197.299 244.772,203.264 236.769,203.264 236.769,214.006 247.726,214.006 247.726,219.971 	"/>
	<path style="fill:#FFFFFF;" d="M261.228,220.472c-2.616,0-4.838-0.916-6.671-2.749s-2.749-4.045-2.749-6.641v-21.478
		c0-2.616,0.922-4.844,2.765-6.676c1.843-1.833,4.06-2.744,6.656-2.744c2.621,0,4.833,0.922,6.661,2.765
		c1.823,1.843,2.729,4.06,2.729,6.656v4.49h-6.154v-4.618c0-0.942-0.333-1.751-1.004-2.417c-0.671-0.666-1.475-1.004-2.417-1.004
		c-0.942,0-1.741,0.333-2.401,1.004c-0.66,0.671-0.988,1.475-0.988,2.417v21.54c0,0.942,0.328,1.741,0.988,2.401
		c0.66,0.66,1.459,0.988,2.401,0.988c0.942,0,1.751-0.328,2.417-0.988c0.671-0.66,1.004-1.459,1.004-2.401v-5.432h6.154v5.494
		c0,2.621-0.922,4.833-2.765,6.656C266.01,219.566,263.803,220.472,261.228,220.472z"/>
	<polygon style="fill:#FFFFFF;" points="281.006,186.593 274.698,186.593 274.698,180.628 293.222,180.628 293.222,186.593 
		286.945,186.593 286.945,219.971 281.006,219.971 	"/>
	<path style="fill:#FFFFFF;" d="M306.698,180.122c2.616,0,4.838,0.922,6.671,2.765s2.749,4.06,2.749,6.656v21.478
		c0,2.616-0.922,4.838-2.765,6.671c-1.843,1.833-4.06,2.749-6.656,2.749c-2.621,0-4.833-0.922-6.656-2.765s-2.734-4.06-2.734-6.656
		v-21.478c0-2.616,0.922-4.838,2.765-6.671C301.911,181.043,304.123,180.122,306.698,180.122z M309.929,189.42
		c0-0.937-0.333-1.741-0.988-2.401c-0.66-0.66-1.459-0.988-2.401-0.988c-0.942,0-1.751,0.328-2.417,0.988
		c-0.671,0.66-1.004,1.459-1.004,2.401v21.54c0,0.942,0.333,1.746,1.004,2.401c0.671,0.655,1.475,0.988,2.417,0.988
		c0.942,0,1.741-0.333,2.401-0.988c0.66-0.66,0.988-1.459,0.988-2.401V189.42z"/>
	<path style="fill:#FFFFFF;" d="M330.716,180.628c3.308,0,5.734,0.911,7.286,2.729c1.362,1.592,2.038,3.809,2.038,6.656v5.719
		c0,2.78-1.06,5.135-3.169,7.06l4.393,17.178h-6.415l-3.599-14.822h-0.532h-3.42v14.822h-5.934v-39.342H330.716z M334.264,190.106
		c0-2.284-1.132-3.42-3.389-3.42h-3.579v12.595h3.579c0.937,0,1.741-0.333,2.401-1.009c0.66-0.671,0.988-1.475,0.988-2.417V190.106z
		"/>
</g>
<g>
</g>
<g>
</g>
<g>
</g>
<g>
</g>
<g>
</g>
<g>
</g>
<g>
</g>
<g>
</g>
<g>
</g>
<g>
</g>
<g>
</g>
<g>
</g>
<g>
</g>
<g>
</g>
<g>
</g>
</svg>
