<svg id="Layer_1" enable-background="new 0 0 140 140" height="512" viewBox="0 0 140 140" width="512" xmlns="http://www.w3.org/2000/svg" xmlns:x="http://ns.adobe.com/Extensibility/1.0/" xmlns:i="http://ns.adobe.com/AdobeIllustrator/10.0/" xmlns:graph="http://ns.adobe.com/Graphs/1.0/"><path d="m134 70c0 .300293 0 .6098633-.0100098.9101562-.4799804 34.4301758-28.1400146 62.2797852-62.4899902 63.0698243-.5.0102539-1 .0200195-1.5.0200195-35.3500977 0-64-28.6499023-64-64 0-35.3398438 28.6499023-64 64-64 35.3399658 0 64 28.6601562 64 64z" fill="#4da0dc"/><path d="m133.9899902 70.9101562c-.4799804 34.4301758-28.1400146 62.2797852-62.4899902 63.0698243l-27.1900635-27.1899414c-1.0100098-1.0297852-1.5499268-2.1499023-1.5499268-3.3100586 0-.4199219.0599365-.8198242.1999512-1.2197266 1.25-3.7602539 2.2700195-15.5703125 2.8900146-24.7304688-4.5400391-4.5395508-15.7200928-15.7197266-17.0799561-17.0795898l-.1401367-.1401367c-1.1198729-1.0698242-1.6298827-2.0800781-1.4499511-2.9101563.6300049-3.1796875 9.6999512-3.5097656 22.6500244-3.4296875-3.4300537-14.3701172-3.210083-26.1000977.7999268-27.2602539 1.3200684-.3798828 2.9001465.4101562 4.6000977 2.1499023l.0300293.0302734 19.2299805 19.2197266c4.7600097-13.330078 10.9599609-22.540039 14.869873-21.3999023.4400635.1303711.8400879.3901367 1.1801758.7602539l.0198975.0200195z" opacity=".1"/><path d="m93.2021255 65.877327h-46.6462745s-1.4569511 29.9717789-3.5990028 36.3816528c-.1331558.3984528-.2017593.8043365-.2017593 1.2161255 0 5.4862213 12.1437607 9.9338608 27.1238785 9.9338608 14.9801636 0 27.1239624-4.4476395 27.1239624-9.9338608 0-.4117889-.0686035-.8176727-.2017593-1.2161255-2.1421358-6.409874-3.599045-36.3816528-3.599045-36.3816528z" fill="#304551"/><path d="m112.8116379 57.3956909c.9784317 4.4733353-18.0326462 13.787674-42.8159714 13.7210541-24.7832336.0671997-43.7945557-9.2483063-42.8159637-13.7210541.9276981-4.6520882 19.9516945-3.1990089 42.8159637-3.3066521 22.8641892.1078377 41.8886032-1.3464164 42.8159714 3.3066521z" fill="#344d5b"/><path d="m69.9982834 73.8995514c-8.818409.0237961-16.923069-1.1033936-23.7307663-2.7768707-.1016808 1.7205658-.2288055 3.763298-.3792992 5.9754791 7.565918 1.768486 15.7581673 2.7031097 23.8089867 2.7029419.0944672 0 .1894455-.0001678.2839508-.0003357 8.0987091.0239639 16.3050079-.895134 23.8922348-2.648941-.1504135-2.2079544-.2776642-4.2495117-.3795929-5.9719315-6.7589722 1.6417465-14.7784424 2.7429428-23.4955139 2.7196579z" fill="#dd584d"/><path d="m100.7632065 58.1222878c.7031021 2.5282288-12.958252 7.7924843-30.76754 7.7548332-17.809227.0379791-31.4707565-5.2269363-30.76754-7.7548332.6666412-2.629261 14.3372803-1.8080101 30.76754-1.8688469 16.4301987.0609474 30.1011353-.7609635 30.76754 1.8688469z" fill="#293b44"/><path d="m70.272644 65.8814774h-.549263c-.8788376 0-1.7453766-.0125122-2.6119995-.0488663-3.8813438-.11026-7.5307846-.4642639-10.8262901-.9887238-1.2083321-.1829605-2.3800888-.3909531-3.4907608-.6347122-.5370445-1.5626373-1.0496559-3.1735497-1.5256882-4.8333359-.3051376-1.0745392-.5980606-2.1240463-.8788376-3.1735535-4.0033722-15.367157-3.9790115-28.2681751.2441254-29.4887276 4.5160561-1.3182907 12.1078568 11.1804466 16.9779243 27.9141693.1585999.5488892.317276 1.0864563.4637375 1.6234283.7689514 2.8195457 1.4158783 5.5657883 1.9284897 8.1898537.0854492.4881059.1831131.9642869.2685623 1.440468z" fill="#e4e3e5"/><path d="m67.1113815 65.8326111c-3.8813438-.11026-7.5307846-.4642639-10.8262901-.9887238-.7079391-1.9529991-1.3914452-4.0645332-2.050518-6.3345909-.2319069-.7938347-.4515991-1.5745621-.6590691-2.3314476-4.2475739-15.818306-3.0513802-25.0701847-1.7698174-25.4486256 1.3303604-.3903637 7.8237076 7.5187893 12.8401566 24.7525311.0732269.2562675.1465378.500618.20755.7568855 1.0008622 3.5031281 1.733162 6.7130356 2.257988 9.5939713z" fill="#ededed"/><path d="m89.6061478 56.1897697c-.268486 1.0501022-.561409 2.1115303-.8787613 3.1860695-.4760361 1.6597862-.9886475 3.2706985-1.5256882 4.8333359-1.1107483.2318344-2.2824326.4517517-3.4907608.6347122-3.2955093.5125351-6.9449463.8784637-10.8263702.9887238-.866539.0363541-1.7331619.0488663-2.6119232.0488663h-.549263c.0854492-.476181.1830368-.9523621.2807007-1.4404678.500473-2.6240654 1.1473236-5.3703079 1.9162827-8.1898537.1464539-.536972.3051376-1.0745392.4638138-1.6234283 4.8699875-16.7337227 12.4618607-29.23246 16.9778442-27.9141693 4.2231368 1.2205523 4.2353515 14.1096534.2441253 29.4762114z" fill="#e4e3e5"/><path d="m86.4205246 56.1778488c-.2074738.7568855-.4271622 1.5376129-.6590729 2.3314476-.6591415 2.2700577-1.3426514 4.3815918-2.0505142 6.3345909-3.2955093.5125351-6.9449463.8784637-10.8263702.9887238.5249023-2.8809357 1.2572098-6.0908432 2.2580719-9.5939713.0610123-.2562675.1342392-.500618.2074661-.7568855 5.0164566-17.2337418 11.5097961-25.1428947 12.8402328-24.7525311 1.2815628.3784409 2.4776841 9.6303196-1.7698135 25.4486256z" fill="#ededed"/></svg>