<svg xmlns="http://www.w3.org/2000/svg" version="1.1" style="font-family: 'Helvetica Neue', Helvetica, Arial, sans-serif; font-size: 18px; background-color: white; text-rendering: optimizeLegibility; -webkit-font-smoothing: antialiased;" width="850" height="600"><g class="ChartTab"><g class="HeaderView"><g opacity="0.8" transform="translate(778, 15) scale(0.27)"><a xmlns:xlink="http://www.w3.org/1999/xlink" xlink:href="https://ourworldindata.org" target="_blank"><g><rect x="0" y="0" fill="#1B2543" width="211.2" height="130.1"/><rect x="0" y="112.2" fill="#E63912" width="211.2" height="17.9"/><g><rect x="1.2" y="12.3" fill="none" width="210.2" height="99.2"/><path fill="#FFFFFF" d="M37.8,32.2c0,12.7-7.7,19.4-17.1,19.4c-9.7,0-16.6-7.5-16.6-18.7c0-11.7,7.3-19.3,17.1-19.3 C31.3,13.7,37.8,21.3,37.8,32.2z M9.2,32.8c0,7.9,4.3,14.9,11.8,14.9c7.5,0,11.8-6.9,11.8-15.3c0-7.3-3.8-14.9-11.8-14.9 C13.1,17.5,9.2,24.8,9.2,32.8z"/><path fill="#FFFFFF" d="M62.7,43.8c0,2.7,0.1,5.1,0.2,7.2h-4.3l-0.3-4.3h-0.1c-1.3,2.1-4,4.9-8.8,4.9c-4.2,0-9.1-2.3-9.1-11.6 V24.6h4.8v14.6c0,5,1.5,8.4,5.9,8.4c3.2,0,5.5-2.2,6.3-4.4c0.3-0.7,0.4-1.6,0.4-2.5V24.6h4.8V43.8z"/><path fill="#FFFFFF" d="M67.3,32.8c0-3.1-0.1-5.8-0.2-8.2h4.2l0.2,5.2h0.2c1.2-3.5,4.1-5.8,7.3-5.8c0.5,0,0.9,0.1,1.4,0.2v4.5 c-0.5-0.1-1-0.2-1.6-0.2c-3.4,0-5.8,2.6-6.5,6.2c-0.1,0.7-0.2,1.4-0.2,2.2V51h-4.8V32.8z"/><path fill="#FFFFFF" d="M95.4,51l-9.4-36.8h5l4.4,18.6c1.1,4.6,2.1,9.2,2.7,12.7h0.1c0.6-3.7,1.8-8,3-12.8l4.9-18.5h5l4.5,18.7 c1,4.4,2,8.7,2.6,12.6h0.1c0.8-4,1.8-8.1,3-12.7l4.9-18.5h4.9L120.6,51h-5L111,31.9c-1.1-4.7-1.9-8.3-2.4-12h-0.1 c-0.7,3.7-1.5,7.3-2.8,12L100.4,51H95.4z"/><path fill="#FFFFFF" d="M154.9,37.6c0,9.8-6.8,14-13.2,14c-7.2,0-12.7-5.2-12.7-13.6c0-8.8,5.8-14,13.1-14 C149.8,24,154.9,29.5,154.9,37.6z M133.9,37.9c0,5.8,3.3,10.1,8,10.1c4.6,0,8-4.3,8-10.3c0-4.5-2.2-10.1-7.9-10.1 C136.3,27.6,133.9,32.8,133.9,37.9z"/><path fill="#FFFFFF" d="M158.2,32.8c0-3.1-0.1-5.8-0.2-8.2h4.2l0.2,5.2h0.2c1.2-3.5,4.1-5.8,7.3-5.8c0.5,0,0.9,0.1,1.4,0.2v4.5 c-0.5-0.1-1-0.2-1.6-0.2c-3.4,0-5.8,2.6-6.5,6.2c-0.1,0.7-0.2,1.4-0.2,2.2V51h-4.8V32.8z"/><path fill="#FFFFFF" d="M173.5,12.3h4.8V51h-4.8V12.3z"/><path fill="#FFFFFF" d="M206.5,12.3v31.9c0,2.3,0.1,5,0.2,6.8h-4.3l-0.2-4.6H202c-1.5,2.9-4.7,5.2-9,5.2 c-6.4,0-11.3-5.4-11.3-13.4c-0.1-8.8,5.4-14.2,11.9-14.2c4,0,6.8,1.9,8,4h0.1V12.3H206.5z M201.7,35.4c0-0.6-0.1-1.4-0.2-2 c-0.7-3.1-3.3-5.6-6.9-5.6c-5,0-7.9,4.4-7.9,10.2c0,5.3,2.6,9.8,7.8,9.8c3.2,0,6.2-2.1,7.1-5.7c0.2-0.7,0.2-1.3,0.2-2.1V35.4z"/><path fill="#FFFFFF" d="M42.8,64c0.1,1.6-1.1,2.9-3.1,2.9c-1.7,0-2.9-1.3-2.9-2.9c0-1.7,1.3-3,3-3C41.7,61,42.8,62.3,42.8,64z M37.4,97.8V71.4h4.8v26.4H37.4z"/><path fill="#FFFFFF" d="M47.5,78.6c0-2.7-0.1-5-0.2-7.1h4.3l0.3,4.4h0.1c1.3-2.5,4.4-5,8.8-5c3.7,0,9.4,2.2,9.4,11.2v15.8h-4.8 V82.6c0-4.3-1.6-7.8-6.1-7.8c-3.2,0-5.6,2.2-6.5,4.9c-0.2,0.6-0.3,1.4-0.3,2.2v15.9h-4.8V78.6z"/><path fill="#FFFFFF" d="M84,61.6c2.9-0.4,6.3-0.8,10.1-0.8c6.8,0,11.7,1.6,14.9,4.6c3.3,3,5.2,7.3,5.2,13.2c0,6-1.9,10.9-5.3,14.3 c-3.4,3.4-9.1,5.3-16.3,5.3c-3.4,0-6.2-0.2-8.6-0.4V61.6z M88.8,94.1c1.2,0.2,3,0.3,4.8,0.3c10.2,0,15.7-5.7,15.7-15.6 c0.1-8.7-4.9-14.2-14.9-14.2c-2.5,0-4.3,0.2-5.6,0.5V94.1z"/><path fill="#FFFFFF" d="M132.1,97.8l-0.4-3.3h-0.2c-1.5,2.1-4.3,3.9-8.1,3.9c-5.4,0-8.1-3.8-8.1-7.6c0-6.4,5.7-9.9,15.9-9.8v-0.5 c0-2.2-0.6-6.1-6-6.1c-2.5,0-5,0.8-6.9,2l-1.1-3.2c2.2-1.4,5.4-2.3,8.7-2.3c8.1,0,10.1,5.5,10.1,10.8v9.9c0,2.3,0.1,4.5,0.4,6.3 H132.1z M131.4,84.4c-5.3-0.1-11.2,0.8-11.2,5.9c0,3.1,2.1,4.6,4.5,4.6c3.4,0,5.6-2.2,6.4-4.4c0.2-0.5,0.3-1,0.3-1.5V84.4z"/><path fill="#FFFFFF" d="M146.6,63.9v7.6h6.9v3.7h-6.9v14.2c0,3.3,0.9,5.1,3.6,5.1c1.3,0,2.2-0.2,2.8-0.3l0.2,3.6 c-0.9,0.4-2.4,0.7-4.3,0.7c-2.2,0-4-0.7-5.2-2c-1.4-1.4-1.9-3.8-1.9-6.9V75.1h-4.1v-3.7h4.1v-6.3L146.6,63.9z"/><path fill="#FFFFFF" d="M171.4,97.8l-0.4-3.3h-0.2c-1.5,2.1-4.3,3.9-8.1,3.9c-5.4,0-8.1-3.8-8.1-7.6c0-6.4,5.7-9.9,15.9-9.8v-0.5 c0-2.2-0.6-6.1-6-6.1c-2.5,0-5,0.8-6.9,2l-1.1-3.2c2.2-1.4,5.4-2.3,8.7-2.3c8.1,0,10.1,5.5,10.1,10.8v9.9c0,2.3,0.1,4.5,0.4,6.3 H171.4z M170.7,84.4c-5.3-0.1-11.2,0.8-11.2,5.9c0,3.1,2.1,4.6,4.5,4.6c3.4,0,5.6-2.2,6.4-4.4c0.2-0.5,0.3-1,0.3-1.5V84.4z"/></g></g></a></g><a href="https://ourworldindata.org/grapher/annual-deaths-of-infants-younger-than-1-year-by-world-region?overlay=download" target="_blank"><text font-size="25.20" x="15.0" y="35.2" fill="#555"><tspan x="15" y="35.160000000000004">Godišnje smrti djece mlađe od jedne godine, po regiji</tspan></text></a></g><g class="StackedArea"><defs><clipPath id="boundsClip-17"><rect x="88.526" y="0" width="820" height="973"></rect></clipPath></defs><g class="AxisBoxView"><g class="HorizontalAxis"><text x="88.5" y="556.5" fill="#666" text-anchor="middle" font-size="16.2">1950.</text><text x="181.2" y="556.5" fill="#666" text-anchor="middle" font-size="16.2">1960.</text><text x="273.8" y="556.5" fill="#666" text-anchor="middle" font-size="16.2">1970.</text><text x="366.5" y="556.5" fill="#666" text-anchor="middle" font-size="16.2">1980.</text><text x="459.1" y="556.5" fill="#666" text-anchor="middle" font-size="16.2">1990.</text><text x="551.8" y="556.5" fill="#666" text-anchor="middle" font-size="16.2">2000.</text><text x="644.5" y="556.5" fill="#666" text-anchor="middle" font-size="16.2">2010.</text><text x="690.8" y="556.5" fill="#666" text-anchor="middle" font-size="16.2">2015.</text></g><g class="VerticalAxis"><text x="83.53" y="535.3" fill="#666" dominant-baseline="middle" text-anchor="end" font-size="16.2">0</text><text x="83.53" y="470.7" fill="#666" dominant-baseline="middle" text-anchor="end" font-size="16.2">2 milijuna</text><text x="83.53" y="406.1" fill="#666" dominant-baseline="middle" text-anchor="end" font-size="16.2">4 milijuna</text><text x="83.53" y="341.4" fill="#666" dominant-baseline="middle" text-anchor="end" font-size="16.2">6 milijuna</text><text x="83.53" y="276.8" fill="#666" dominant-baseline="middle" text-anchor="end" font-size="16.2">8 milijuna</text><text x="83.53" y="212.2" fill="#666" dominant-baseline="middle" text-anchor="end" font-size="16.2">10 milijuna</text><text x="83.53" y="147.6" fill="#666" dominant-baseline="middle" text-anchor="end" font-size="16.2">12 milijuna</text><text x="83.53" y="82.9" fill="#666" dominant-baseline="middle" text-anchor="end" font-size="16.2">14 milijuna</text></g><g class="AxisGridLines"><line x1="88.53" y1="535.3" x2="690.78" y2="535.3" stroke="#ccc"></line><line x1="88.53" y1="470.7" x2="690.78" y2="470.7" stroke="#ddd" stroke-dasharray="3,2"></line><line x1="88.53" y1="406.1" x2="690.78" y2="406.1" stroke="#ddd" stroke-dasharray="3,2"></line><line x1="88.53" y1="341.4" x2="690.78" y2="341.4" stroke="#ddd" stroke-dasharray="3,2"></line><line x1="88.53" y1="276.8" x2="690.78" y2="276.8" stroke="#ddd" stroke-dasharray="3,2"></line><line x1="88.53" y1="212.2" x2="690.78" y2="212.2" stroke="#ddd" stroke-dasharray="3,2"></line><line x1="88.53" y1="147.6" x2="690.78" y2="147.6" stroke="#ddd" stroke-dasharray="3,2"></line><line x1="88.53" y1="82.9" x2="690.78" y2="82.9" stroke="#ddd" stroke-dasharray="3,2"></line></g></g><g clip-path="url(#boundsClip-17)"><g class="HeightedLegend clickable"><g class="legendMark"><g class="indicator"><line x1="695.785" y1="387.2" x2="708.285" y2="387.2" stroke="#666" stroke-width="0.5"></line><line x1="708.285" y1="387.2" x2="708.285" y2="387.2" stroke="#666" stroke-width="0.5"></line><line x1="708.285" y1="387.2" x2="720.785" y2="387.2" stroke="#666" stroke-width="0.5"></line></g><rect x="690.785" y="380.45" width="78.74000000000001" height="13.5" fill="#fff" opacity="0"></rect><text font-size="13.50" x="725.8" y="391.3" fill="#ffd53e"><tspan x="725.785" y="391.25">Europa</tspan></text></g><g class="legendMark"><g class="indicator"><line x1="695.785" y1="423.5" x2="708.285" y2="423.5" stroke="#666" stroke-width="0.5"></line><line x1="708.285" y1="423.5" x2="708.285" y2="423.5" stroke="#666" stroke-width="0.5"></line><line x1="708.285" y1="423.5" x2="720.785" y2="423.5" stroke="#666" stroke-width="0.5"></line></g><rect x="690.785" y="416.75" width="69.56" height="13.5" fill="#fff" opacity="0"></rect><text font-size="13.50" x="725.8" y="427.6" fill="#3360a9"><tspan x="725.785" y="427.55">Afrika</tspan></text></g><g class="legendMark"><g class="indicator"><line x1="695.785" y1="462.2" x2="718.285" y2="462.2" stroke="#666" stroke-width="0.5"></line><line x1="718.285" y1="462.2" x2="718.285" y2="462.2" stroke="#666" stroke-width="0.5"></line><line x1="718.285" y1="462.2" x2="720.785" y2="462.2" stroke="#666" stroke-width="0.5"></line></g><rect x="690.785" y="448.15" width="144.215" height="28.1" fill="#fff" opacity="0"></rect><text font-size="13.50" x="725.8" y="458.9" fill="#6bb537"><tspan x="725.785" y="466.95">Latinska Amerika</tspan><tspan x="725.785" y="473.8"></tspan></text></g><g class="legendMark"><g class="indicator"><line x1="695.785" y1="465.7" x2="708.285" y2="465.7" stroke="#666" stroke-width="0.5"></line><line x1="708.285" y1="465.7" x2="708.285" y2="485" stroke="#666" stroke-width="0.5"></line><line x1="708.285" y1="485" x2="720.785" y2="485" stroke="#666" stroke-width="0.5"></line></g><rect x="690.785" y="478.25" width="140.97500000000002" height="13.5" fill="#fff" opacity="0"></rect><text font-size="13.50" x="725.8" y="489.1" fill="#34983f"><tspan x="725.785" y="489.05">Sjeverna Amerika</tspan></text></g><g class="legendMark"><g class="indicator"><line x1="695.785" y1="500.5" x2="708.285" y2="500.5" stroke="#666" stroke-width="0.5"></line><line x1="708.285" y1="500.5" x2="708.285" y2="500.5" stroke="#666" stroke-width="0.5"></line><line x1="708.285" y1="500.5" x2="720.785" y2="500.5" stroke="#666" stroke-width="0.5"></line></g><rect x="690.785" y="493.75" width="61.325" height="13.5" fill="#fff" opacity="0"></rect><text font-size="13.50" x="725.8" y="504.6" fill="#932834"><tspan x="725.785" y="504.55">Azija</tspan></text></g><g class="legendMark"><g class="indicator"><line x1="695.785" y1="535.1" x2="708.285" y2="535.1" stroke="#666" stroke-width="0.5"></line><line x1="708.285" y1="535.1" x2="708.285" y2="535.1" stroke="#666" stroke-width="0.5"></line><line x1="708.285" y1="535.1" x2="720.785" y2="535.1" stroke="#666" stroke-width="0.5"></line></g><rect x="690.785" y="528.35" width="85.49000000000001" height="13.5" fill="#fff" opacity="0"></rect><text font-size="13.50" x="725.8" y="539.1" fill="#a652ba"><tspan x="725.785" y="539.15">Oceanija</tspan></text></g></g><g class="Areas"><rect x="88.526" y="70" width="602.259" height="465.29999999999995" opacity="0" fill="rgba(255,255,255,0)"></rect><path stroke-linecap="round" d="M88.5 534.6L97.8 534.6L107.1 534.6L116.3 534.6L125.6 534.6L134.9 534.6L144.1 534.6L153.4 534.6L162.7 534.6L171.9 534.6L181.2 534.6L190.4 534.6L199.7 534.6L209 534.6L218.2 534.6L227.5 534.6L236.8 534.6L246 534.6L255.3 534.6L264.6 534.7L273.8 534.7L283.1 534.7L292.4 534.7L301.6 534.7L310.9 534.7L320.2 534.7L329.4 534.7L338.7 534.7L348 534.7L357.2 534.8L366.5 534.8L375.8 534.8L385 534.8L394.3 534.8L403.6 534.8L412.8 534.8L422.1 534.8L431.4 534.8L440.6 534.8L449.9 534.8L459.1 534.8L468.4 534.8L477.7 534.8L486.9 534.8L496.2 534.8L505.5 534.8L514.7 534.8L524 534.8L533.3 534.8L542.5 534.8L551.8 534.8L561.1 534.8L570.3 534.8L579.6 534.8L588.9 534.8L598.1 534.8L607.4 534.8L616.7 534.8L625.9 534.8L635.2 534.8L644.5 534.8L653.7 534.9L663 534.9L672.3 534.9L681.5 534.9L690.8 534.9L690.785 535.3L88.526 535.3" fill="#a652ba" fill-opacity="0.7" class="Oceania_0-area"></path><path stroke-linecap="round" d="M88.5 209L97.8 213.4L107.1 221L116.3 226.8L125.6 230.5L134.9 232.4L144.1 232.5L153.4 231L162.7 228.2L171.9 224.8L181.2 221.4L190.4 218.8L199.7 217.9L209 218.9L218.2 222.3L227.5 227.6L236.8 234.4L246 241.8L255.3 249.2L264.6 256.3L273.8 263L283.1 269.5L292.4 276.2L301.6 283.2L310.9 290.5L320.2 297.8L329.4 304.8L338.7 311.2L348 316.8L357.2 321.5L366.5 325.3L375.8 328.2L385 330.5L394.3 332.5L403.6 334.3L412.8 336.4L422.1 339L431.4 342.2L440.6 346.1L449.9 350.7L459.1 356L468.4 361.8L477.7 367.9L486.9 374L496.2 380.1L505.5 385.9L514.7 391.6L524 397L533.3 402.3L542.5 407.3L551.8 412.2L561.1 416.8L570.3 421.3L579.6 425.5L588.9 429.7L598.1 433.7L607.4 437.6L616.7 441.3L625.9 445L635.2 448.6L644.5 452L653.7 455.2L663 458.3L672.3 461.1L681.5 463.6L690.8 466L690.8 534.9L681.5 534.9L672.3 534.9L663 534.9L653.7 534.9L644.5 534.8L635.2 534.8L625.9 534.8L616.7 534.8L607.4 534.8L598.1 534.8L588.9 534.8L579.6 534.8L570.3 534.8L561.1 534.8L551.8 534.8L542.5 534.8L533.3 534.8L524 534.8L514.7 534.8L505.5 534.8L496.2 534.8L486.9 534.8L477.7 534.8L468.4 534.8L459.1 534.8L449.9 534.8L440.6 534.8L431.4 534.8L422.1 534.8L412.8 534.8L403.6 534.8L394.3 534.8L385 534.8L375.8 534.8L366.5 534.8L357.2 534.8L348 534.7L338.7 534.7L329.4 534.7L320.2 534.7L310.9 534.7L301.6 534.7L292.4 534.7L283.1 534.7L273.8 534.7L264.6 534.7L255.3 534.6L246 534.6L236.8 534.6L227.5 534.6L218.2 534.6L209 534.6L199.7 534.6L190.4 534.6L181.2 534.6L171.9 534.6L162.7 534.6L153.4 534.6L144.1 534.6L134.9 534.6L125.6 534.6L116.3 534.6L107.1 534.6L97.8 534.6L88.5 534.6" fill="#932834" fill-opacity="0.7" class="Asia_0-area"></path><path stroke-linecap="round" d="M88.5 204.7L97.8 209L107.1 216.7L116.3 222.4L125.6 226.2L134.9 228.1L144.1 228.2L153.4 226.7L162.7 224L171.9 220.6L181.2 217.4L190.4 214.9L199.7 214.1L209 215.3L218.2 218.8L227.5 224.3L236.8 231.3L246 238.9L255.3 246.4L264.6 253.7L273.8 260.5L283.1 267.2L292.4 274L301.6 281.2L310.9 288.6L320.2 296L329.4 303.1L338.7 309.5L348 315.2L357.2 320L366.5 323.8L375.8 326.8L385 329.1L394.3 331L403.6 332.9L412.8 335L422.1 337.6L431.4 340.8L440.6 344.7L449.9 349.4L459.1 354.7L468.4 360.5L477.7 366.7L486.9 372.9L496.2 379L505.5 384.9L514.7 390.5L524 396L533.3 401.3L542.5 406.3L551.8 411.2L561.1 415.8L570.3 420.3L579.6 424.6L588.9 428.7L598.1 432.7L607.4 436.6L616.7 440.4L625.9 444.1L635.2 447.7L644.5 451.1L653.7 454.4L663 457.4L672.3 460.2L681.5 462.9L690.8 465.3L690.8 466L681.5 463.6L672.3 461.1L663 458.3L653.7 455.2L644.5 452L635.2 448.6L625.9 445L616.7 441.3L607.4 437.6L598.1 433.7L588.9 429.7L579.6 425.5L570.3 421.3L561.1 416.8L551.8 412.2L542.5 407.3L533.3 402.3L524 397L514.7 391.6L505.5 385.9L496.2 380.1L486.9 374L477.7 367.9L468.4 361.8L459.1 356L449.9 350.7L440.6 346.1L431.4 342.2L422.1 339L412.8 336.4L403.6 334.3L394.3 332.5L385 330.5L375.8 328.2L366.5 325.3L357.2 321.5L348 316.8L338.7 311.2L329.4 304.8L320.2 297.8L310.9 290.5L301.6 283.2L292.4 276.2L283.1 269.5L273.8 263L264.6 256.3L255.3 249.2L246 241.8L236.8 234.4L227.5 227.6L218.2 222.3L209 218.9L199.7 217.9L190.4 218.8L181.2 221.4L171.9 224.8L162.7 228.2L153.4 231L144.1 232.5L134.9 232.4L125.6 230.5L116.3 226.8L107.1 221L97.8 213.4L88.5 209" fill="#34983f" fill-opacity="0.7" class="Northern-America_0-area"></path><path stroke-linecap="round" d="M88.5 172.7L97.8 177L107.1 184.8L116.3 190.5L125.6 194.3L134.9 196.2L144.1 196.3L153.4 194.9L162.7 192.1L171.9 188.8L181.2 185.5L190.4 183.1L199.7 182.3L209 183.7L218.2 187.3L227.5 193L236.8 200.3L246 208.3L255.3 216.2L264.6 223.8L273.8 231.1L283.1 238.2L292.4 245.4L301.6 253L310.9 260.9L320.2 268.7L329.4 276.2L338.7 283.2L348 289.4L357.2 294.7L366.5 299.1L375.8 302.8L385 305.8L394.3 308.5L403.6 311.3L412.8 314.2L422.1 317.7L431.4 321.7L440.6 326.5L449.9 331.9L459.1 338L468.4 344.6L477.7 351.4L486.9 358.2L496.2 364.9L505.5 371.4L514.7 377.6L524 383.6L533.3 389.4L542.5 395.1L551.8 400.5L561.1 405.7L570.3 410.6L579.6 415.4L588.9 419.9L598.1 424.3L607.4 428.5L616.7 432.6L625.9 436.6L635.2 440.4L644.5 444L653.7 447.5L663 450.8L672.3 453.8L681.5 456.6L690.8 459.2L690.8 465.3L681.5 462.9L672.3 460.2L663 457.4L653.7 454.4L644.5 451.1L635.2 447.7L625.9 444.1L616.7 440.4L607.4 436.6L598.1 432.7L588.9 428.7L579.6 424.6L570.3 420.3L561.1 415.8L551.8 411.2L542.5 406.3L533.3 401.3L524 396L514.7 390.5L505.5 384.9L496.2 379L486.9 372.9L477.7 366.7L468.4 360.5L459.1 354.7L449.9 349.4L440.6 344.7L431.4 340.8L422.1 337.6L412.8 335L403.6 332.9L394.3 331L385 329.1L375.8 326.8L366.5 323.8L357.2 320L348 315.2L338.7 309.5L329.4 303.1L320.2 296L310.9 288.6L301.6 281.2L292.4 274L283.1 267.2L273.8 260.5L264.6 253.7L255.3 246.4L246 238.9L236.8 231.3L227.5 224.3L218.2 218.8L209 215.3L199.7 214.1L190.4 214.9L181.2 217.4L171.9 220.6L162.7 224L153.4 226.7L144.1 228.2L134.9 228.1L125.6 226.2L116.3 222.4L107.1 216.7L97.8 209L88.5 204.7" fill="#6bb537" fill-opacity="0.7" class="Latin-America-and-the-Caribbean_0-area"></path><path stroke-linecap="round" d="M88.5 101.8L97.8 106.2L107.1 113.9L116.3 119.6L125.6 123.4L134.9 125.2L144.1 125.1L153.4 123.5L162.7 120.5L171.9 116.9L181.2 113.4L190.4 110.6L199.7 109.5L209 110.5L218.2 113.8L227.5 119.1L236.8 126L246 133.4L255.3 140.8L264.6 147.8L273.8 154.5L283.1 161L292.4 167.7L301.6 174.8L310.9 182.1L320.2 189.5L329.4 196.7L338.7 203.2L348 208.9L357.2 213.8L366.5 217.7L375.8 220.8L385 223.3L394.3 225.5L403.6 227.7L412.8 230.1L422.1 232.9L431.4 236.2L440.6 240L449.9 244.5L459.1 249.6L468.4 255.2L477.7 261.3L486.9 267.6L496.2 274L505.5 280.5L514.7 287L524 293.4L533.3 299.8L542.5 306.1L551.8 312.2L561.1 318.2L570.3 324L579.6 329.8L588.9 335.4L598.1 340.9L607.4 346.3L616.7 351.6L625.9 356.8L635.2 361.8L644.5 366.7L653.7 371.4L663 375.8L672.3 380.1L681.5 384.1L690.8 387.9L690.8 459.2L681.5 456.6L672.3 453.8L663 450.8L653.7 447.5L644.5 444L635.2 440.4L625.9 436.6L616.7 432.6L607.4 428.5L598.1 424.3L588.9 419.9L579.6 415.4L570.3 410.6L561.1 405.7L551.8 400.5L542.5 395.1L533.3 389.4L524 383.6L514.7 377.6L505.5 371.4L496.2 364.9L486.9 358.2L477.7 351.4L468.4 344.6L459.1 338L449.9 331.9L440.6 326.5L431.4 321.7L422.1 317.7L412.8 314.2L403.6 311.3L394.3 308.5L385 305.8L375.8 302.8L366.5 299.1L357.2 294.7L348 289.4L338.7 283.2L329.4 276.2L320.2 268.7L310.9 260.9L301.6 253L292.4 245.4L283.1 238.2L273.8 231.1L264.6 223.8L255.3 216.2L246 208.3L236.8 200.3L227.5 193L218.2 187.3L209 183.7L199.7 182.3L190.4 183.1L181.2 185.5L171.9 188.8L162.7 192.1L153.4 194.9L144.1 196.3L134.9 196.2L125.6 194.3L116.3 190.5L107.1 184.8L97.8 177L88.5 172.7" fill="#3360a9" fill-opacity="0.7" class="Africa_0-area"></path><path stroke-linecap="round" d="M88.5 70L97.8 75.3L107.1 85L116.3 92.6L125.6 98L134.9 101.5L144.1 103L153.4 102.8L162.7 101.2L171.9 98.9L181.2 96.6L190.4 95L199.7 94.9L209 96.9L218.2 101L227.5 107.1L236.8 114.7L246 122.8L255.3 130.7L264.6 138.2L273.8 145.3L283.1 152.2L292.4 159.2L301.6 166.6L310.9 174.2L320.2 181.9L329.4 189.3L338.7 196L348 202L357.2 207.1L366.5 211.2L375.8 214.5L385 217.2L394.3 219.7L403.6 222.1L412.8 224.6L422.1 227.7L431.4 231.2L440.6 235.3L449.9 240L459.1 245.4L468.4 251.3L477.7 257.7L486.9 264.2L496.2 270.9L505.5 277.6L514.7 284.3L524 290.9L533.3 297.4L542.5 303.8L551.8 310L561.1 316.1L570.3 322L579.6 327.8L588.9 333.5L598.1 339.1L607.4 344.6L616.7 349.9L625.9 355.2L635.2 360.3L644.5 365.2L653.7 369.9L663 374.4L672.3 378.7L681.5 382.8L690.8 386.6L690.8 387.9L681.5 384.1L672.3 380.1L663 375.8L653.7 371.4L644.5 366.7L635.2 361.8L625.9 356.8L616.7 351.6L607.4 346.3L598.1 340.9L588.9 335.4L579.6 329.8L570.3 324L561.1 318.2L551.8 312.2L542.5 306.1L533.3 299.8L524 293.4L514.7 287L505.5 280.5L496.2 274L486.9 267.6L477.7 261.3L468.4 255.2L459.1 249.6L449.9 244.5L440.6 240L431.4 236.2L422.1 232.9L412.8 230.1L403.6 227.7L394.3 225.5L385 223.3L375.8 220.8L366.5 217.7L357.2 213.8L348 208.9L338.7 203.2L329.4 196.7L320.2 189.5L310.9 182.1L301.6 174.8L292.4 167.7L283.1 161L273.8 154.5L264.6 147.8L255.3 140.8L246 133.4L236.8 126L227.5 119.1L218.2 113.8L209 110.5L199.7 109.5L190.4 110.6L181.2 113.4L171.9 116.9L162.7 120.5L153.4 123.5L144.1 125.1L134.9 125.2L125.6 123.4L116.3 119.6L107.1 113.9L97.8 106.2L88.5 101.8" fill="#ffd53e" fill-opacity="0.7" class="Europe_0-area"></path><path stroke-linecap="round" d="M88.5 534.6L97.8 534.6L107.1 534.6L116.3 534.6L125.6 534.6L134.9 534.6L144.1 534.6L153.4 534.6L162.7 534.6L171.9 534.6L181.2 534.6L190.4 534.6L199.7 534.6L209 534.6L218.2 534.6L227.5 534.6L236.8 534.6L246 534.6L255.3 534.6L264.6 534.7L273.8 534.7L283.1 534.7L292.4 534.7L301.6 534.7L310.9 534.7L320.2 534.7L329.4 534.7L338.7 534.7L348 534.7L357.2 534.8L366.5 534.8L375.8 534.8L385 534.8L394.3 534.8L403.6 534.8L412.8 534.8L422.1 534.8L431.4 534.8L440.6 534.8L449.9 534.8L459.1 534.8L468.4 534.8L477.7 534.8L486.9 534.8L496.2 534.8L505.5 534.8L514.7 534.8L524 534.8L533.3 534.8L542.5 534.8L551.8 534.8L561.1 534.8L570.3 534.8L579.6 534.8L588.9 534.8L598.1 534.8L607.4 534.8L616.7 534.8L625.9 534.8L635.2 534.8L644.5 534.8L653.7 534.9L663 534.9L672.3 534.9L681.5 534.9L690.8 534.9" stroke="rgb(139, 69, 156)" stroke-opacity="0.7" stroke-width="0.5" fill="none" class="Oceania_0-border"></path><path stroke-linecap="round" d="M88.5 209L97.8 213.4L107.1 221L116.3 226.8L125.6 230.5L134.9 232.4L144.1 232.5L153.4 231L162.7 228.2L171.9 224.8L181.2 221.4L190.4 218.8L199.7 217.9L209 218.9L218.2 222.3L227.5 227.6L236.8 234.4L246 241.8L255.3 249.2L264.6 256.3L273.8 263L283.1 269.5L292.4 276.2L301.6 283.2L310.9 290.5L320.2 297.8L329.4 304.8L338.7 311.2L348 316.8L357.2 321.5L366.5 325.3L375.8 328.2L385 330.5L394.3 332.5L403.6 334.3L412.8 336.4L422.1 339L431.4 342.2L440.6 346.1L449.9 350.7L459.1 356L468.4 361.8L477.7 367.9L486.9 374L496.2 380.1L505.5 385.9L514.7 391.6L524 397L533.3 402.3L542.5 407.3L551.8 412.2L561.1 416.8L570.3 421.3L579.6 425.5L588.9 429.7L598.1 433.7L607.4 437.6L616.7 441.3L625.9 445L635.2 448.6L644.5 452L653.7 455.2L663 458.3L672.3 461.1L681.5 463.6L690.8 466" stroke="rgb(123, 33, 44)" stroke-opacity="0.7" stroke-width="0.5" fill="none" class="Asia_0-border"></path><path stroke-linecap="round" d="M88.5 204.7L97.8 209L107.1 216.7L116.3 222.4L125.6 226.2L134.9 228.1L144.1 228.2L153.4 226.7L162.7 224L171.9 220.6L181.2 217.4L190.4 214.9L199.7 214.1L209 215.3L218.2 218.8L227.5 224.3L236.8 231.3L246 238.9L255.3 246.4L264.6 253.7L273.8 260.5L283.1 267.2L292.4 274L301.6 281.2L310.9 288.6L320.2 296L329.4 303.1L338.7 309.5L348 315.2L357.2 320L366.5 323.8L375.8 326.8L385 329.1L394.3 331L403.6 332.9L412.8 335L422.1 337.6L431.4 340.8L440.6 344.7L449.9 349.4L459.1 354.7L468.4 360.5L477.7 366.7L486.9 372.9L496.2 379L505.5 384.9L514.7 390.5L524 396L533.3 401.3L542.5 406.3L551.8 411.2L561.1 415.8L570.3 420.3L579.6 424.6L588.9 428.7L598.1 432.7L607.4 436.6L616.7 440.4L625.9 444.1L635.2 447.7L644.5 451.1L653.7 454.4L663 457.4L672.3 460.2L681.5 462.9L690.8 465.3" stroke="rgb(44, 127, 53)" stroke-opacity="0.7" stroke-width="0.5" fill="none" class="Northern-America_0-border"></path><path stroke-linecap="round" d="M88.5 172.7L97.8 177L107.1 184.8L116.3 190.5L125.6 194.3L134.9 196.2L144.1 196.3L153.4 194.9L162.7 192.1L171.9 188.8L181.2 185.5L190.4 183.1L199.7 182.3L209 183.7L218.2 187.3L227.5 193L236.8 200.3L246 208.3L255.3 216.2L264.6 223.8L273.8 231.1L283.1 238.2L292.4 245.4L301.6 253L310.9 260.9L320.2 268.7L329.4 276.2L338.7 283.2L348 289.4L357.2 294.7L366.5 299.1L375.8 302.8L385 305.8L394.3 308.5L403.6 311.3L412.8 314.2L422.1 317.7L431.4 321.7L440.6 326.5L449.9 331.9L459.1 338L468.4 344.6L477.7 351.4L486.9 358.2L496.2 364.9L505.5 371.4L514.7 377.6L524 383.6L533.3 389.4L542.5 395.1L551.8 400.5L561.1 405.7L570.3 410.6L579.6 415.4L588.9 419.9L598.1 424.3L607.4 428.5L616.7 432.6L625.9 436.6L635.2 440.4L644.5 444L653.7 447.5L663 450.8L672.3 453.8L681.5 456.6L690.8 459.2" stroke="rgb(90, 151, 46)" stroke-opacity="0.7" stroke-width="0.5" fill="none" class="Latin-America-and-the-Caribbean_0-border"></path><path stroke-linecap="round" d="M88.5 101.8L97.8 106.2L107.1 113.9L116.3 119.6L125.6 123.4L134.9 125.2L144.1 125.1L153.4 123.5L162.7 120.5L171.9 116.9L181.2 113.4L190.4 110.6L199.7 109.5L209 110.5L218.2 113.8L227.5 119.1L236.8 126L246 133.4L255.3 140.8L264.6 147.8L273.8 154.5L283.1 161L292.4 167.7L301.6 174.8L310.9 182.1L320.2 189.5L329.4 196.7L338.7 203.2L348 208.9L357.2 213.8L366.5 217.7L375.8 220.8L385 223.3L394.3 225.5L403.6 227.7L412.8 230.1L422.1 232.9L431.4 236.2L440.6 240L449.9 244.5L459.1 249.6L468.4 255.2L477.7 261.3L486.9 267.6L496.2 274L505.5 280.5L514.7 287L524 293.4L533.3 299.8L542.5 306.1L551.8 312.2L561.1 318.2L570.3 324L579.6 329.8L588.9 335.4L598.1 340.9L607.4 346.3L616.7 351.6L625.9 356.8L635.2 361.8L644.5 366.7L653.7 371.4L663 375.8L672.3 380.1L681.5 384.1L690.8 387.9" stroke="rgb(43, 80, 141)" stroke-opacity="0.7" stroke-width="0.5" fill="none" class="Africa_0-border"></path><path stroke-linecap="round" d="M88.5 70L97.8 75.3L107.1 85L116.3 92.6L125.6 98L134.9 101.5L144.1 103L153.4 102.8L162.7 101.2L171.9 98.9L181.2 96.6L190.4 95L199.7 94.9L209 96.9L218.2 101L227.5 107.1L236.8 114.7L246 122.8L255.3 130.7L264.6 138.2L273.8 145.3L283.1 152.2L292.4 159.2L301.6 166.6L310.9 174.2L320.2 181.9L329.4 189.3L338.7 196L348 202L357.2 207.1L366.5 211.2L375.8 214.5L385 217.2L394.3 219.7L403.6 222.1L412.8 224.6L422.1 227.7L431.4 231.2L440.6 235.3L449.9 240L459.1 245.4L468.4 251.3L477.7 257.7L486.9 264.2L496.2 270.9L505.5 277.6L514.7 284.3L524 290.9L533.3 297.4L542.5 303.8L551.8 310L561.1 316.1L570.3 322L579.6 327.8L588.9 333.5L598.1 339.1L607.4 344.6L616.7 349.9L625.9 355.2L635.2 360.3L644.5 365.2L653.7 369.9L663 374.4L672.3 378.7L681.5 382.8L690.8 386.6" stroke="rgb(213, 178, 52)" stroke-opacity="0.7" stroke-width="0.5" fill="none" class="Europe_0-border"></path></g></g></g><g style="fill: #777;" class="SourcesFooter"><g style="fill: #777;" class="clickable"><text font-size="12.60" x="15.0" y="581.6"><tspan x="15" y="581.58">Izvor: UN Population Division (revizija iz 2017.)</tspan></text></g><text font-size="12.60" x="564.2" y="581.6"><tspan x="564.226" y="581.58"><a target='_blank' style='fill: #777;' href='https://ourworldindata.org/child-mortality/'>OurWorldInData.org/child-mortality/</a> • <a style="fill: #777;" href="http://creativecommons.org/licenses/by-sa/4.0/deed.en_US" target="_blank">CC BY-SA</a></tspan></text></g></g></svg>