<?xml version="1.0" encoding="UTF-8" standalone="no"?>
<svg
   xmlns:dc="http://purl.org/dc/elements/1.1/"
   xmlns:cc="http://creativecommons.org/ns#"
   xmlns:rdf="http://www.w3.org/1999/02/22-rdf-syntax-ns#"
   xmlns:svg="http://www.w3.org/2000/svg"
   xmlns="http://www.w3.org/2000/svg"
   xmlns:sodipodi="http://sodipodi.sourceforge.net/DTD/sodipodi-0.dtd"
   xmlns:inkscape="http://www.inkscape.org/namespaces/inkscape"
   width="64"
   height="64"
   viewBox="0 0 64 64"
   version="1.1"
   id="svg8"
   inkscape:version="0.92.1 r15371"
   sodipodi:docname="o-broken-steering-wheel.svg">
  <defs
     id="defs2" />
  <sodipodi:namedview
     id="base"
     pagecolor="#ffffff"
     bordercolor="#666666"
     borderopacity="1.0"
     inkscape:pageopacity="0.0"
     inkscape:pageshadow="2"
     inkscape:zoom="13.078154"
     inkscape:cx="32.368059"
     inkscape:cy="32.401306"
     inkscape:document-units="mm"
     inkscape:current-layer="layer1"
     showgrid="false"
     inkscape:window-width="1920"
     inkscape:window-height="1001"
     inkscape:window-x="-9"
     inkscape:window-y="-9"
     inkscape:window-maximized="1" />
  <metadata
     id="metadata5">
    <rdf:RDF>
      <cc:Work
         rdf:about="">
        <dc:format>image/svg+xml</dc:format>
        <dc:type
           rdf:resource="http://purl.org/dc/dcmitype/StillImage" />
        <dc:title></dc:title>
      </cc:Work>
    </rdf:RDF>
  </metadata>
  <g
     inkscape:label="Layer 1"
     inkscape:groupmode="layer"
     id="layer1"
     transform="translate(41.5,-234) rotate(9)">
    <g transform="translate(-0.5 -0.5)"><path
       style="opacity:1;fill:#c0c0c0;fill-opacity:1;stroke:#000000;stroke-width:1;stroke-linejoin:round;stroke-miterlimit:4;stroke-dasharray:none;stroke-opacity:1"
       d="m 33.832052,234.27 c -11.770886,-0.79915 -23.539932,6.15931 -28.5893532,16.80697 -5.2806848,10.52958 -3.5053718,24.07865 4.3714405,32.85349 1.2465697,1.35307 2.8699147,3.87808 3.5834147,0.86782 1.280039,-0.68656 1.738891,-1.10946 2.500092,-2.07346 -1.072257,-2.09602 -4.427568,-4.96923 -5.315187,-8.06041 -0.7379291,-2.23668 -2.5965312,-6.29957 -1.502709,-7.78013 4.166899,0.50158 8.333796,1.00316 12.500695,1.50473 0.496921,-1.55548 2.146845,-2.38344 3.00778,-3.29002 0.999861,-0.8338 1.175336,-2.41072 0.509233,-3.34853 0.266238,-1.83461 -1.203454,-1.93249 -2.586967,-1.78981 -4.592058,-0.0712 -9.184114,-0.1424 -13.7761716,-0.21361 2.4330956,-11.70582 14.2535156,-20.85346 26.2778236,-19.37643 3.409728,-0.28772 6.665572,2.95335 9.595754,2.20378 0.776483,-1.43171 2.406861,-1.8053 3.458406,-2.90582 2.794588,-0.34049 -2.333281,-2.05332 -3.176325,-2.71474 -3.406468,-1.57105 -7.1121,-2.4851 -10.857926,-2.68383 z"
       id="path5212"
       inkscape:connector-curvature="0" /></g>
    <g transform="translate(0.5 0)"><path
       style="opacity:1;fill:#c0c0c0;fill-opacity:1;stroke:#000000;stroke-width:1;stroke-linejoin:round;stroke-miterlimit:4;stroke-dasharray:none;stroke-opacity:1"
       d="M 49.628906 7.3984375 C 48.73507 8.1051675 47.816966 9.0023762 46.46875 9.4414062 C 45.229442 10.622476 43.477552 11.491571 46.125 12.519531 C 51.474018 16.356121 55.207277 22.382094 56.191406 28.896484 C 50.113936 28.712244 44.036454 28.52799 37.958984 28.34375 C 35.704071 24.67817 29.519878 24.292204 27.203125 28.089844 C 26.904007 29.220464 28.338797 31.597166 26.669922 33.191406 C 25.391841 35.193816 24.905667 35.230262 23.660156 36.857422 C 25.813561 37.181302 27.458987 39.659652 27.851562 41.701172 L 27.697266 55.294922 C 24.341622 55.348722 20.862793 52.666456 18.220703 52.410156 C 17.168072 54.237076 12.792358 55.988074 16.677734 57.490234 C 27.035573 64.140644 41.445472 63.326153 51.011719 55.601562 C 60.107596 48.630522 64.459983 36.18404 61.681641 25.0625 C 60.017899 17.95437 55.621883 11.556587 49.628906 7.3984375 z M 55.619141 36.128906 C 54.389187 44.161936 48.949551 51.740229 41.033203 54.255859 C 39.479023 54.447859 35.752367 56.662013 36.34375 53.757812 L 35.921875 41.28125 C 36.958416 38.66881 39.809754 36.961887 42.578125 37.029297 C 46.924867 36.729127 51.272398 36.429066 55.619141 36.128906 z "
       transform="translate(0,233)"
       id="path5196" /></g>
  </g>
</svg>
