<svg xmlns="http://www.w3.org/2000/svg" width="64" height="64" viewBox="0 0 64 64"><path fill="#ACB8BF" d="M2 60.125h60.001V62H2zM5.5 56.375h53.001v1.875H5.5z"/><path fill="#DAE3EA" d="M3.75 58.25h56.501v1.875H3.75zM7.25 54.5h49.501v1.875H7.25z"/><path fill="#94989B" d="M4.813 27.769h54.376v1.877H4.813z"/><path fill="#DAE3EA" d="M2 29.646h60.001v1.877H2z"/><path fill="#94989B" d="M31.989 4.84L2 21.235l2.512 3.754L31.989 6.691l27.5 18.298 2.512-3.754z"/><path fill="#DAE3EA" d="M31.989 2L2 21.235v2.816L31.989 4.814l30.012 19.237v-2.816z"/><path fill="#DAE3EA" d="M31.989 6.691L2 25.928v1.876h60.001v-1.876z"/><path fill="#ACB8BF" d="M31.989 9.482L7.082 25.928h49.837z"/><g><path fill="#DAE3EA" d="M8.5 33.196h6V52.75h-6z"/><path fill="#94989B" d="M7.75 52.75h7.5v1.75h-7.5zM7.75 31.499h7.5v1.697h-7.5z"/><g fill="#C8D0D6"><path d="M9.099 33.979h.708v18.04h-.708zM13.193 33.979h.708v18.04h-.708zM11.829 33.979h.707v18.04h-.707zM10.464 33.979h.707v18.04h-.707z"/></g></g><g><path fill="#DAE3EA" d="M22.167 33.196h6v19.615h-6z"/><path fill="#94989B" d="M21.417 52.812h7.5V54.5h-7.5zM21.417 31.499h7.5v1.697h-7.5z"/><g fill="#C8D0D6"><path d="M22.766 33.979h.707v18.04h-.707zM26.86 33.979h.707v18.04h-.707zM25.495 33.979h.708v18.04h-.708zM24.13 33.979h.708v18.04h-.708z"/></g></g><g><path fill="#DAE3EA" d="M35.834 33.196h6v19.615h-6z"/><path fill="#94989B" d="M35.084 52.812h7.5V54.5h-7.5zM35.084 31.499h7.5v1.697h-7.5z"/><g fill="#C8D0D6"><path d="M36.434 33.979h.707v18.04h-.707zM40.527 33.979h.707v18.04h-.707zM39.162 33.979h.708v18.04h-.708zM37.798 33.979h.708v18.04h-.708z"/></g></g><g><path fill="#DAE3EA" d="M49.501 33.196h6V52.75h-6z"/><path fill="#94989B" d="M48.751 52.75h7.5v1.75h-7.5zM48.751 31.499h7.5v1.697h-7.5z"/><g fill="#C8D0D6"><path d="M50.1 33.979h.708v18.04H50.1zM54.193 33.979h.708v18.04h-.708zM52.829 33.979h.707v18.04h-.707zM51.465 33.979h.707v18.04h-.707z"/></g></g></svg>