<svg xmlns="http://www.w3.org/2000/svg" width="64" height="64" viewBox="0 0 64 64">
  <g transform="scale(0.8) translate(8 15)">
  <path fill="#947151" d="M62 37.107C62 55.15 41.779 62 32 62S2 55.15 2 37.107c0-22.973 10.99-28.26 30-28.26s30 5.288 30 28.26z"/><path fill="#E0AC7E" d="M18.873 45.576c0-9.293 8.881-12.822 13.178-12.822 4.295 0 13.176 3.529 13.176 12.822 0 11.834-4.826 14.559-13.176 14.559S18.873 57.41 18.873 45.576z"/><path fill="#947151" d="M32.693 2.012c.287 1.564-.555 2.814-.555 2.814-1.412-1.891-4.225-2.547-4.225-2.547 1.082 1.287.795 3.271.795 3.271-1.949-.746-3.58-.605-3.58-.605 4.002 3.023 3.117 12.125 3.117 12.125 4.748-5.033 10.627-7.449 10.627-7.449-1.349-4.641-6.179-7.609-6.179-7.609z"/><path fill="#3E4347" d="M36.367 57.039c.082 0 .127-.186.127-.293 0-.744-1.992-1.352-4.453-1.352-2.459 0-4.453.605-4.453 1.352 0 .102.035.293.105.293h8.674z"/><g><path fill="#3E4347" d="M22.758 45.852c0-3.834 4.141-4.574 9.242-4.574 5.105 0 9.242.74 9.242 4.574 0 3.053-7.355 5.76-9.242 5.76s-9.242-2.708-9.242-5.76z"/></g><path fill="#3E4347" d="M59.135 30.674l-1.686.297-1.686.275c-1.123.184-2.252.338-3.377.49-2.256.293-4.516.525-6.779.713-4.529.367-9.07.549-13.613.545s-9.088-.186-13.619-.58c-4.533-.408-9.053-1-13.516-2.029l-.016-.004a.096.096 0 0 1-.074-.121.101.101 0 0 1 .105-.076c2.256.145 4.516.262 6.773.359 2.26.104 4.52.191 6.779.256 4.521.131 9.043.186 13.566.176 4.521.01 9.047-.041 13.568-.145 4.523-.096 9.037-.289 13.57-.359.057 0 .104.045.105.1a.103.103 0 0 1-.084.1l-.016.003z"/>
  <g fill="#3E4347"><path d="M19.566 32.473c0 1.621-1.629 2.938-3.639 2.938s-3.641-1.316-3.641-2.938 1.631-1.168 3.641-1.168 3.639-.453 3.639 1.168zM51.713 32.473c0 1.621-1.631 2.938-3.639 2.938-2.012 0-3.641-1.316-3.641-2.938s1.629-1.168 3.641-1.168c2.008 0 3.639 -.453 3.639 1.168z"/>
  </g>
    </g>
  <g>
      <path fill="#62727A" d="M52.866 22.3c-9.09-10.135.079-23.808-6.992-19.477-5.165 3.165-10.249 3.993-13.875 3.993-3.628 0-8.707-.827-13.875-3.993-7.071-4.331 2.098 9.341-6.991 19.477C2.439 27.416 2 26.762 2 28.024c0 .688.361 6.843 29.999 6.843S62 28.712 62 28.024c0-1.262-.44-.608-9.134-5.724z"/><path fill="#2C3033" d="M31.999 24.102c9.598 0 20.867-1.831 20.867-1.831a14.975 14.975 0 0 1-2.29-3.431c-4.637.656-10.677 1.093-18.577 1.093s-13.942-.438-18.577-1.093a14.928 14.928 0 0 1-2.289 3.431s11.267 1.831 20.866 1.831z"/>
  </g>
</svg>