<svg xmlns="http://www.w3.org/2000/svg" width="64" height="64" viewBox="0 0 64 64">
<g transform="scale(1.05) translate(-1 1)">
  <path fill="#DBB471" d="M54 46.888C54 59.038 44.15 59 32 59s-22 .038-22-12.112S19.85 15 32 15s22 19.737 22 31.888z"/>
  <path opacity=".5" fill="#89664C" d="M54 46.888c0-4.12-1.136-9.112-3.106-13.912.369 3.123-.425 8.648-9.893 10.658-13.501 2.866-6.528 6.749-11.765 7.182-4.518.374-16.48-1.44-18.879-8.206-.23 1.494-.357 2.934-.357 4.278C10 59.038 19.85 59 32 59s22 .038 22-12.112z"/>
  <path fill="#DBB471" d="M46 2c0 6.063-7.856 16-14 16S18 9.063 18 3c0-6.065.856 0 7 0 .882 0 5.139-3 7-3 1.33 0 4.969 3 7 3 5.333 0 7-5.573 7-1z"/>
  <path fill="#89664C" opacity="0.6" d="M30.173 13.254c-.604.362-3.453.06-4.4.829-1.161.944.528 3.039-.67 4.274-2.371 2.445-4.296 5.115-3.728 6.643.959 2.577 2.875-4.77 4.625-2.01s1.375-1.857 4 .514.369-4.254 2.935-1.379 2.642 6.245 4.44 6.25c2.126.006-2.25-7.854.625-5.989s5.867 1.23 3.089-1.698c-.863-.909-2.135-2.486-3.516-3.917-.52-.539-.056-3.057-.591-3.511-.557-.472-2.113 1.126-2.651.842-1.157-.61-.775.511-2.602.837-1.319.235-.302-2.437-1.556-1.685z"/>
  <path fill="#E8E8E8" d="M18.707 19.207c3.868-3.69 11.025-1.633 15.156.156 4.058 1.758 6.558-3.945 4.013-6.785-1.487-1.66-3.853.332-4.846 1.479-1.017 1.175-1.811 2.519-2.857 3.672-1.613 1.776-5.544.31-4.282-2.245 1.272-2.579 6.79.396 8.633.924 3.521 1.008 7.24 1.394 10.743.139 1.205-.432.686-2.364-.531-1.928-3.867 1.385-7.757.488-11.548-.7-1.875-.588-4.949-2.241-6.948-1.302-5.712 2.684-.361 10.415 4.369 7.373 1.07-.688 1.841-1.839 2.584-2.845.458-.619 2.997-4.431 3.576-2.531.295.968.02 2.753-1.058 3.137-.723.258-20.139-.669-2.843-.949-1.279-.509-2.612-.862-3.956-1.153-3.668-.794-8.707-.634-11.619 2.145-.935.891.481 2.303 1.414 1.413z"/>
  <path fill="#89664C" d="M44.84.533C43.798 1.276 41.967 3 39 3c-2.031 0-5.67-3-7-3-1.861 0-6.118 3-7 3-3.299 0-5.071-1.747-6.008-2.428.001.004 1.106 4.491 4.509 6.761 2.499 1.667 2.167-.25 3.5-2s2.235-2.666 4.468 1.834c1.22 2.459 3.462-6.787 5.282-3.834 3.338 5.417 4.512 2.483 8.089-2.8z"/>
  <g fill-rule="evenodd" clip-rule="evenodd" fill="#E8E8E8" transform="scale(0.4) translate(45 70)" opacity="0.75"><path d="M30.249 2.065C18.612 2.789 12.531 9.379 12 21.296h11.739c.147-4.128 2.451-7.214 6.741-7.669 4.211-.447 8.206.556 9.416 3.435 1.307 3.11-1.627 6.724-3.022 8.241-2.582 2.813-6.776 4.865-8.95 7.9-2.131 2.974-2.51 6.887-2.674 11.676h10.346c.145-3.062.349-5.995 1.742-7.898 2.266-3.092 5.65-4.541 8.486-6.983 2.709-2.334 5.559-5.147 6.043-9.501C53.319 7.466 42.683 1.289 30.249 2.065z"/><ellipse cx="30.515" cy="55.567" rx="6.532" ry="6.433"/></g>
</g>
</svg>