<svg xmlns="http://www.w3.org/2000/svg" width="64" height="64" viewBox="0 0 64 64"><path fill="#B2C1C0" d="M33 11.834c0 .549-.45 1-1 1s-1-.451-1-1V1c0-.55.45-1 1-1s1 .45 1 1v10.834z"/><path fill="#E5DEC1" d="M4 28h56v32H4z"/><path fill="#D33B23" d="M60.522 19.789C60.02 18.805 58.688 18 57.563 18H6.438c-1.125 0-2.457.805-2.96 1.789L.195 26.211C-.309 27.195.199 28 1.324 28h61.352c1.125 0 1.633-.805 1.13-1.789l-3.284-6.422z"/><path fill="#D6EEF0" d="M15 45c0 .55-.45 1-1 1H8c-.55 0-1-.45-1-1v-4c0-.55.45-1 1-1h6c.55 0 1 .45 1 1v4zM15 35c0 .55-.45 1-1 1H8c-.55 0-1-.45-1-1v-4c0-.55.45-1 1-1h6c.55 0 1 .45 1 1v4z"/><path fill="#DBB471" d="M14 36.5H8c-.827 0-1.5-.673-1.5-1.5v-4c0-.827.673-1.5 1.5-1.5h6c.827 0 1.5.673 1.5 1.5v4c0 .827-.673 1.5-1.5 1.5zm-6-6c-.275 0-.5.225-.5.5v4c0 .275.225.5.5.5h6c.275 0 .5-.225.5-.5v-4c0-.275-.225-.5-.5-.5H8z"/><path fill="#DBB471" d="M10.5 30h1v6h-1zM14 47H8c-.827 0-1.5-.673-1.5-1.5v-4c0-.827.673-1.5 1.5-1.5h6c.827 0 1.5.673 1.5 1.5v4c0 .827-.673 1.5-1.5 1.5zm-6-6c-.275 0-.5.225-.5.5v4c0 .275.225.5.5.5h6c.275 0 .5-.225.5-.5v-4c0-.275-.225-.5-.5-.5H8z"/><path fill="#DBB471" d="M10.5 40.5h1v6h-1z"/><path fill="#D6EEF0" d="M15 55c0 .55-.45 1-1 1H8c-.55 0-1-.45-1-1v-4c0-.55.45-1 1-1h6c.55 0 1 .45 1 1v4z"/><path fill="#DBB471" d="M14 57H8c-.827 0-1.5-.673-1.5-1.5v-4c0-.827.673-1.5 1.5-1.5h6c.827 0 1.5.673 1.5 1.5v4c0 .827-.673 1.5-1.5 1.5zm-6-6c-.275 0-.5.225-.5.5v4c0 .275.225.5.5.5h6c.275 0 .5-.225.5-.5v-4c0-.275-.225-.5-.5-.5H8z"/><path fill="#DBB471" d="M10.5 50.5h1v6h-1z"/><path fill="#D6EEF0" d="M57 45c0 .55-.45 1-1 1h-6c-.55 0-1-.45-1-1v-4c0-.55.45-1 1-1h6c.55 0 1 .45 1 1v4zM57 35c0 .55-.45 1-1 1h-6c-.55 0-1-.45-1-1v-4c0-.55.45-1 1-1h6c.55 0 1 .45 1 1v4z"/><path fill="#DBB471" d="M56 36.5h-6c-.827 0-1.5-.673-1.5-1.5v-4c0-.827.673-1.5 1.5-1.5h6c.827 0 1.5.673 1.5 1.5v4c0 .827-.673 1.5-1.5 1.5zm-6-6c-.275 0-.5.225-.5.5v4c0 .275.225.5.5.5h6c.275 0 .5-.225.5-.5v-4c0-.275-.225-.5-.5-.5h-6z"/><path fill="#DBB471" d="M52.5 30h1v6h-1zM56 47h-6c-.827 0-1.5-.673-1.5-1.5v-4c0-.827.673-1.5 1.5-1.5h6c.827 0 1.5.673 1.5 1.5v4c0 .827-.673 1.5-1.5 1.5zm-6-6c-.275 0-.5.225-.5.5v4c0 .275.225.5.5.5h6c.275 0 .5-.225.5-.5v-4c0-.275-.225-.5-.5-.5h-6z"/><path fill="#DBB471" d="M52.5 40.5h1v6h-1z"/><path fill="#D6EEF0" d="M57 55c0 .55-.45 1-1 1h-6c-.55 0-1-.45-1-1v-4c0-.55.45-1 1-1h6c.55 0 1 .45 1 1v4z"/><path fill="#DBB471" d="M56 57h-6c-.827 0-1.5-.673-1.5-1.5v-4c0-.827.673-1.5 1.5-1.5h6c.827 0 1.5.673 1.5 1.5v4c0 .827-.673 1.5-1.5 1.5zm-6-6c-.275 0-.5.225-.5.5v4c0 .275.225.5.5.5h6c.275 0 .5-.225.5-.5v-4c0-.275-.225-.5-.5-.5h-6z"/><path fill="#DBB471" d="M52.5 50.5h1v6h-1z"/><path fill="#F15744" d="M32.777 11.629c-.428-.346-1.127-.346-1.555 0L11.777 27.371c-.427.346-.327.629.223.629h40c.55 0 .65-.283.223-.629L32.777 11.629z"/><path fill="#F9F3D9" d="M48.229 27.364L32.771 14.636c-.424-.35-1.119-.35-1.543 0L15.771 27.364c-.423.35-.321.636.229.636h2v32h28V28h2c.55 0 .652-.286.229-.636z"/><path fill="#E5DEC1" d="M24 45h16v15H24z"/><path fill="firebrick" d="M26 45h12v15H26z"/><g fill="#89664C"><path d="M20.201 38.034c.266.121.674.241 1.094.241.454 0 .693-.166.693-.419 0-.241-.207-.38-.731-.546-.726-.225-1.198-.581-1.198-1.144 0-.661.621-1.167 1.651-1.167.493 0 .854.092 1.114.195l-.221.707a2.278 2.278 0 0 0-.912-.184c-.429 0-.636.172-.636.373 0 .247.247.356.81.546.771.253 1.134.609 1.134 1.155 0 .649-.563 1.201-1.762 1.201-.499 0-.991-.115-1.237-.235l.201-.723zM26.873 38.827c-.182.081-.59.167-1.121.167-1.51 0-2.287-.833-2.287-1.937 0-1.322 1.063-2.058 2.385-2.058.512 0 .9.092 1.074.173l-.201.695a2.353 2.353 0 0 0-.828-.144c-.783 0-1.393.419-1.393 1.281 0 .775.518 1.265 1.398 1.265.299 0 .629-.058.822-.127l.151.685zM28.512 35.063v1.488h1.626v-1.488h.984v3.873h-.984v-1.621h-1.626v1.621h-.991v-3.873h.991zM35.979 36.96c0 1.27-.867 2.04-2.144 2.04-1.295 0-2.053-.868-2.053-1.972 0-1.16.836-2.028 2.124-2.028 1.342 0 2.073.891 2.073 1.96zm-3.153.052c0 .758.401 1.293 1.063 1.293.666 0 1.049-.563 1.049-1.316 0-.695-.376-1.293-1.057-1.293-.666-.001-1.055.563-1.055 1.316zM40.625 36.96c0 1.27-.867 2.04-2.145 2.04-1.295 0-2.053-.868-2.053-1.972 0-1.16.836-2.028 2.125-2.028 1.341 0 2.073.891 2.073 1.96zm-3.154.052c0 .758.401 1.293 1.063 1.293.667 0 1.049-.563 1.049-1.316 0-.695-.375-1.293-1.056-1.293-.668-.001-1.056.563-1.056 1.316zM41.273 35.063h.99v3.138H44v.735h-2.727v-3.873z"/></g><circle fill="#DBB471" cx="32" cy="26" r="7"/><circle fill="#FFF" cx="32" cy="26" r="5"/><path fill="#E5DEC1" d="M31.5 45h1v15h-1z"/><path fill="#B2C1C0" d="M32 22c-.55 0-1 .45-1 1v4c0 .55.45 1 1 1s1-.45 1-1v-4c0-.55-.45-1-1-1z"/><path fill="#F15744" d="M32 26h-2c-.55 0-1 .45-1 1s.45 1 1 1h2c.55 0 1-.45 1-1s-.45-1-1-1z"/><path fill="black" d="M33 2v7.366c4 3.192 8-6.876 12-3.683C41 .036 37 7.646 33 2z"/><path fill="#F15744" d="M32.947 40.29a1.692 1.692 0 0 0-1.895 0C28.873 41.842 22 45.994 22 45.994V48h20v-2.006s-6.873-4.152-9.053-5.704z"/><path fill="" d="M63 60H1c-.55 0-1 .45-1 1v2c0 .55.45 1 1 1h62c.55 0 1-.45 1-1v-2c0-.55-.45-1-1-1z"/><path fill="red" d="M20 62h24v2H20z"/><path fill="red" d="M22 60h20v2H22z"/><path fill="red" d="M29.063 53.5h1.438v.726h-1.438zM33.5 53.5h1.438v.726H33.5z"/>
<g transform="scale(0.8 0.8) translate(16 22)" stroke="white" stroke-width="0.5" display="">
<path fill="#719198" d="m39.01 28.28c0 2.646-1.659 4.789-3.708 4.789h-22.406c-2.049 0-1.967-2.143-1.967-4.789 0-2.646-.083-4.792 1.967-4.792h22.406c2.049 0 3.708 2.145 3.708 4.792"/><path fill="#6c888c" d="m38.744 30.05c.168-.551.269-1.144.269-1.77 0-2.646-1.659-4.792-3.708-4.792h-22.406c-2.049 0-1.967 2.145-1.967 4.792 0 .625-.003 1.219.017 1.77h27.795"/><g fill="#719198"><path d="m37.36 33.486c.805 1.902-1.681 3.927-2.272 4.779-1.636 2.347.759 2.19.813 2.183 2.033-.305 4.478-2.631 4.693-7.963.126-3.055-3.846-3.357-5.875-3.051-.135.02-.267.053-.399.095 1.476.044 2.161 1.885 3.04 3.957"/><path d="m48.17 20.335c1.556-.932.092-3.752-.105-4.69-.537-2.587 1.634-1.169 1.678-1.134 1.772 1.33 3.076 4.341 1.029 8.313-1.171 2.277-5.01.33-6.777-.999-.114-.09-.224-.185-.328-.287 1.395.771 2.807-.185 4.503-1.203"/></g><path fill="#354a54" d="m63.27 51.916c.117-.792.103-1.71-.031-2.488-.29-1.697-4.606-8.807-6.02-10.783-1.1-1.539-2.01-3.158-1.874-5.05-.153-.506-.293-1.022-.401-1.557-.213-1.042-.303-2.095-.315-3.149l1.573-2.324c.771-1.137.513-2.704-.567-3.502-.438-.322-.943-.428-1.443-.415-.658-1.494-1.992-2.587-3.605-3.047-3.998 3.814-7.468 7.983-8.9 12.732 2.187 3.177 2.552 6.03 1.898 10.09 1.449 2.359 4.627 7.917 4.771 9.516.434 4.838-.657 6.363 2.158 5.903.522-.082 9.496-1.82 9.496-1.82 4.808-.922 3.595-3.539 3.265-4.101"/><path fill="#405866" d="m57.22 38.645c-1.1-1.539-2.01-3.158-1.874-5.05-.153-.506-.293-1.022-.401-1.557-.074-.353-.112-.711-.159-1.069-8.08 7.304-6.938 21.1 4.243 25.24.598-.114.98-.188.98-.188 4.811-.922 3.597-3.539 3.268-4.101.117-.792.103-1.71-.031-2.488-.291-1.699-4.607-8.808-6.03-10.784"/><g fill="#719198"><path d="m35.391 21.998c0 3.02-2.445 5.464-5.463 5.464h-25.857c-3.02 0-3.724-2.447-3.724-5.464 0-3.02.708-5.466 3.724-5.466h25.856c3.02 0 5.464 2.448 5.464 5.466"/><path d="m38.646 45.18h-6.51c-3.419 0-6.199-3.117-6.199-6.945 0-3.83 2.78-6.946 6.199-6.946h6.51c3.419 0 6.201 3.116 6.201 6.946 0 3.828-2.783 6.945-6.201 6.945m-6.511-12.149c-2.458 0-4.459 2.334-4.459 5.203s2 5.204 4.459 5.204h6.51c2.459 0 4.459-2.335 4.459-5.204s-2-5.203-4.459-5.203h-6.51"/></g><path fill="#80a0a6" d="m47.56 26.817c0 4.564-4.04 6.25-9.03 6.25h-6.274c-4.988 0-9.03-1.686-9.03-6.25v-6.04c0-4.563 4.04-5.977 9.03-5.977h6.274c4.99 0 9.03 1.414 9.03 5.977v6.04"/><g fill="#465c61"><path d="m41.734 19.965c0 .472-.522.852-1.174.852h-10.334c-.65 0-1.18-.38-1.18-.852v-.816c0-.472.529-.851 1.18-.851h10.334c.651 0 1.174.379 1.174.851v.816"/><path d="m41.734 25.16c0 .468-.522.85-1.174.85h-10.334c-.65 0-1.18-.381-1.18-.85v-.817c0-.472.529-.852 1.18-.852h10.334c.651 0 1.174.379 1.174.852v.817"/><path d="m41.894 29.619c0 .469-.523.849-1.174.849h-10.335c-.651 0-1.18-.379-1.18-.849v-.818c0-.472.529-.85 1.18-.85h10.335c.65 0 1.174.378 1.174.85v.818"/></g></g>
</svg>